<svg width="28" height="28" viewBox="0 0 28 28" fill="none" xmlns="http://www.w3.org/2000/svg">
<path d="M0.621016 0.0897961C-0.0198887 0.418985 -0.200657 1.27488 0.248524 1.86144C0.533371 2.23252 0.588149 2.24449 2.20411 2.27442L3.68312 2.30435L5.40315 10.175C7.25465 18.6561 7.1451 18.2312 7.57237 18.5783C7.72027 18.704 7.73122 18.704 16.189 18.7219L24.6577 18.7339L24.8987 18.6082C25.3534 18.3688 25.3041 18.5424 26.7338 12.2219C28.1416 6.00324 28.1197 6.14689 27.8677 5.70997C27.8074 5.59625 27.6486 5.44063 27.5226 5.35684L27.287 5.2072H16.9011C10.0155 5.2072 6.50419 5.18925 6.48228 5.14735C6.46585 5.11144 6.2303 4.08796 5.96189 2.86696C5.42506 0.442926 5.3922 0.353148 4.97588 0.119722C4.7732 0.00600243 4.65269 1.71661e-05 2.7738 1.71661e-05C1.17975 0.00600243 0.752484 0.0239582 0.621016 0.0897961ZM25.6273 7.5235C25.6273 7.55343 25.1726 9.56448 24.6248 12.0005L23.6224 16.4296L16.2766 16.4475L8.93087 16.4595L8.84322 16.0585C8.7994 15.8311 8.36665 13.8499 7.87912 11.6414C7.39708 9.43879 7.00267 7.60131 7.00267 7.55941C7.00267 7.49358 8.82679 7.48161 16.315 7.48161C21.4367 7.48161 25.6273 7.49956 25.6273 7.5235Z" fill="white"/>
<path d="M8.536 20.5474C6.15315 21.3255 5.2274 24.4558 6.76667 26.5566C7.51165 27.5741 8.50861 28.0649 9.68086 27.9931C10.6121 27.9392 11.3352 27.5861 11.998 26.8559C12.2883 26.5447 12.4253 26.3232 12.6115 25.8983C12.8963 25.2459 12.973 24.8927 12.973 24.1925C12.973 23.145 12.6334 22.2473 11.9542 21.5051C11.6419 21.1639 11.4612 21.0263 11.0503 20.8108C10.7655 20.6612 10.4039 20.5115 10.2451 20.4756C9.75755 20.3679 9.00161 20.3978 8.536 20.5474ZM10.0972 22.8338C11.1434 23.3845 11.1489 24.9706 10.1027 25.5751C9.79042 25.7546 9.19882 25.7546 8.88658 25.5751C8.45383 25.3237 8.09777 24.7072 8.09777 24.2104C8.09777 23.9231 8.27854 23.4443 8.47027 23.2109C8.76607 22.8518 9.13856 22.6722 9.5494 22.7021C9.73016 22.7141 9.97667 22.774 10.0972 22.8338Z" fill="white"/>
<path d="M21.3649 20.4936C20.8062 20.6492 20.1762 21.0442 19.7435 21.5111C19.4148 21.8642 19.2943 22.0497 19.0916 22.5106C18.8013 23.169 18.7246 23.5221 18.7246 24.2104C18.7246 24.8448 18.8013 25.2339 19.0259 25.7786C19.6394 27.233 20.9267 28.0829 22.3893 27.9931C23.3095 27.9392 23.9997 27.6041 24.6571 26.8918C25.0624 26.4549 25.3089 26.0299 25.5061 25.4254C25.6321 25.0424 25.6486 24.8987 25.654 24.2403C25.654 23.6298 25.6321 23.4144 25.5335 23.0732C25.2049 21.948 24.3942 21.0322 23.3369 20.6013C23.0357 20.4816 22.8494 20.4457 22.3126 20.4337C21.8853 20.4217 21.5512 20.4397 21.3649 20.4936ZM22.7234 22.8099C23.8245 23.3545 23.8738 24.9586 22.8111 25.5751C22.4988 25.7546 21.9072 25.7546 21.595 25.5751C20.4775 24.9286 20.5706 23.2647 21.7648 22.762C22.0277 22.6542 22.4495 22.6722 22.7234 22.8099Z" fill="white"/>
</svg>
