<svg width="625" height="278" viewBox="0 0 625 278" fill="none" xmlns="http://www.w3.org/2000/svg">
<path d="M324.484 272C322.617 274 319.95 276.133 318.484 276.8C313.55 278.933 305.684 277.2 301.284 272.8L297.15 268.667L296.484 230.4L295.817 192.133L280.484 190.4C231.817 185.067 179.15 164.133 125.95 129.067L106.75 116.533L81.2835 141.733C62.0835 160.933 54.7501 167.333 51.4168 168C45.2834 169.333 37.8168 165.333 34.7502 159.067C30.3502 150 31.6835 147.867 58.2169 121.067C71.4169 107.6 82.0835 96.5333 81.6835 96.2667C69.0168 87.3333 25.0168 44.1333 8.21686 24.2667C6.01593 21.6774 4.1712 19.3884 2.68213 17.3025C-1.67084 11.2051 2.60645 4.20865 9.58881 1.49327C13.7191 -0.112949 18.2948 -0.149336 22.45 1.39099L30.3511 4.31988C33.3298 5.42406 36.0026 7.22192 38.1483 9.56459L47.9502 20.2667C82.8835 58 134.883 99.2 175.817 121.6C213.15 142.133 253.017 155.333 288.75 159.2C335.017 164.267 383.417 154.267 433.817 129.2C481.017 105.733 523.417 74.1333 568.084 28.9333C575.029 21.9876 582.115 15.5779 586.851 11.3073C590.356 8.14715 595.294 4.7778 599.617 2.88633L601.781 1.93935C606.088 0.0552312 610.961 -0.0661116 615.356 1.60135C622.335 4.2491 626.634 11.2001 622.302 17.2781C620.81 19.3705 618.96 21.6673 616.75 24.2667C599.95 44.1333 555.95 87.3333 543.284 96.2667C542.884 96.5333 553.55 107.6 566.75 121.067C593.284 147.867 594.617 150 590.217 159.067C587.15 165.333 579.684 169.333 573.55 168C570.217 167.333 562.884 160.933 543.55 141.733L518.084 116.267L502.217 126.933C447.95 163.733 390.484 186.4 340.35 190.933L329.15 192L328.484 230.267L327.817 268.4L324.484 272Z" fill="black"/>
</svg>
