<svg width="32" height="32" viewBox="0 0 32 32" fill="none" xmlns="http://www.w3.org/2000/svg">
<path d="M31.2938 15.2915C31.2966 15.2915 31.2987 15.2915 31.3015 15.2915C31.4964 15.2915 31.6822 15.2097 31.8142 15.0665C31.9483 14.9212 32.0147 14.7263 31.9972 14.5293C31.2959 6.81538 25.1886 0.705958 17.4739 0.00322768C17.2783 -0.0121402 17.0813 0.0514269 16.936 0.186245C16.7907 0.320364 16.7097 0.509669 16.7118 0.707355C16.8333 10.9591 18.1857 15.1483 31.2938 15.2915ZM31.2938 16.7081C18.1857 16.8513 16.834 21.0404 16.7125 31.2922C16.7104 31.4899 16.7914 31.6792 16.9367 31.8133C17.0667 31.9327 17.2364 31.9991 17.411 31.9991C17.432 31.9991 17.4536 31.9984 17.4746 31.9963C25.1893 31.2936 31.2966 25.1849 31.9972 17.4702C32.0147 17.2732 31.949 17.0783 31.8142 16.933C31.6794 16.7877 31.4915 16.7158 31.2938 16.7081ZM14.4793 0.00672045C6.78905 0.729708 0.701286 6.83773 0.00344559 14.5307C-0.0140179 14.7277 0.0516449 14.9226 0.186463 15.0679C0.318487 15.2111 0.504997 15.2922 0.69919 15.2922C0.701985 15.2922 0.704779 15.2922 0.707573 15.2922C13.7723 15.142 15.1212 10.9549 15.2442 0.710149C15.2463 0.512463 15.1645 0.32246 15.0192 0.188341C14.8725 0.0542211 14.6763 -0.0114416 14.4793 0.00672045ZM0.706874 16.7074C0.489629 16.6829 0.319185 16.7863 0.185764 16.9316C0.0516449 17.0769 -0.0147164 17.2718 0.0027471 17.4688C0.700588 25.1618 6.78905 31.2698 14.4793 31.9928C14.5009 31.9949 14.5233 31.9956 14.5449 31.9956C14.7196 31.9956 14.8886 31.93 15.0185 31.8105C15.1638 31.6764 15.2456 31.4864 15.2435 31.2887C15.1205 21.0446 13.7723 16.8576 0.706874 16.7074Z" fill="#F5F5F5"/>
</svg>
