<svg width="300" height="321" viewBox="0 0 300 321" fill="none" xmlns="http://www.w3.org/2000/svg">
<circle cx="150" cy="170.419" r="147" fill="#FFE484" stroke="#9A4331" stroke-width="6"/>
<path d="M283.845 64.1622L159.05 181.433L198.517 11.0657C239.384 19.6772 257.841 31.6661 283.845 64.1622Z" fill="#FFE484" stroke="#9A4331" stroke-width="2"/>
<path d="M283.783 63.803C258.692 30.6113 235.881 18.7129 198.226 11.0546L197.44 16.0927C235.219 25.6072 258.165 37.8428 278.897 68.4L283.783 63.803Z" fill="#9A4331" stroke="#9A4331" stroke-width="2"/>
<circle cx="213.442" cy="48.4774" r="16" transform="rotate(20.1777 213.442 48.4774)" fill="#9A4331"/>
<path fill-rule="evenodd" clip-rule="evenodd" d="M235.643 109.786L258.965 87.8762C252.915 81.4358 242.789 81.1196 236.349 87.1699C229.909 93.2202 229.592 103.346 235.643 109.786Z" fill="#9A4331"/>
<path fill-rule="evenodd" clip-rule="evenodd" d="M183.173 80.5243L174.519 117.098C187.075 120.069 199.191 114.29 201.58 104.19C203.97 94.0907 195.729 83.4951 183.173 80.5243C183.173 80.5243 183.173 80.5243 183.173 80.5243Z" fill="#9A4331"/>
<path d="M90.7533 194.283C88.0653 193.707 85.4093 192.587 82.7853 190.923C80.1613 189.323 77.7613 187.499 75.5853 185.451C73.4093 183.403 71.5533 181.323 70.0173 179.211C68.4813 177.035 67.4573 175.147 66.9453 173.547C65.9213 170.411 65.2813 167.339 65.0253 164.331C64.7693 161.259 64.6413 158.667 64.6413 156.555C64.6413 151.179 65.4413 146.571 67.0413 142.731C68.7053 138.891 70.5613 135.851 72.6093 133.611C75.7453 130.155 78.6573 127.627 81.3453 126.027C84.0333 124.427 86.4013 123.627 88.4493 123.627C90.2413 123.627 91.8733 124.171 93.3453 125.259C93.7933 125.515 94.0173 126.219 94.0173 127.371C94.0173 128.267 93.7933 129.099 93.3453 129.867C92.8973 130.571 92.0973 131.051 90.9453 131.307C89.4733 131.563 87.9693 131.915 86.4333 132.363C84.9613 132.811 83.2013 133.931 81.1533 135.723C80.0653 136.683 78.9773 137.867 77.8893 139.275C76.8653 140.683 75.9373 142.347 75.1053 144.267C74.2733 146.187 73.6013 148.395 73.0893 150.891C72.5773 153.323 72.3213 156.043 72.3213 159.051C72.3213 164.555 74.1133 170.251 77.6973 176.139C78.7853 177.483 79.8093 178.699 80.7693 179.787C81.7293 180.811 82.5613 181.675 83.2653 182.379C83.9693 183.083 84.6733 183.755 85.3773 184.395C86.0813 185.099 87.1693 185.835 88.6413 186.603C89.1533 186.859 89.8253 187.115 90.6573 187.371C91.4893 187.691 92.1613 187.947 92.6733 188.139C93.6973 188.715 94.2093 189.515 94.2093 190.539C94.2093 191.563 93.8573 192.491 93.1533 193.323C92.5133 194.155 91.8093 194.475 91.0413 194.283H90.7533ZM123.05 179.979C121.514 179.659 120.33 179.083 119.498 178.251C118.73 177.355 117.93 176.203 117.098 174.795C116.586 173.899 116.074 172.747 115.562 171.339C115.05 169.931 114.538 168.235 114.026 166.251C113.514 164.011 113.002 161.771 112.49 159.531C111.978 157.291 111.594 155.595 111.338 154.443C110.634 157.835 109.898 161.163 109.13 164.427C108.362 167.627 107.594 170.667 106.826 173.547C106.058 176.427 105.29 179.051 104.522 181.419C103.754 183.851 102.986 185.899 102.218 187.563C102.026 188.011 101.61 188.235 100.97 188.235C100.266 188.235 99.3378 187.947 98.1858 187.371C97.2898 186.923 96.6498 186.379 96.2658 185.739C95.9458 185.099 95.7858 184.363 95.7858 183.531C95.7858 183.019 96.4578 180.971 97.8018 177.387C98.1218 176.619 98.8258 174.411 99.9138 170.763C101.002 167.115 102.538 161.931 104.522 155.211C105.226 152.907 105.93 149.739 106.634 145.707C107.338 141.675 108.042 136.747 108.746 130.923C108.874 130.795 109.194 130.123 109.706 128.907C110.026 128.011 110.602 127.563 111.434 127.563C113.802 127.563 115.402 127.979 116.234 128.811C116.234 129.707 116.234 130.923 116.234 132.459C116.234 133.995 116.362 135.787 116.618 137.835C116.874 139.883 117.066 141.675 117.194 143.211C117.322 144.747 117.386 146.059 117.386 147.147C117.578 149.451 117.898 151.403 118.346 153.003C118.794 154.539 119.178 156.203 119.498 157.995C120.202 162.283 121.45 165.707 123.242 168.267C126.314 159.691 128.81 152.043 130.73 145.323C132.714 138.539 134.122 132.619 134.954 127.563C135.21 126.539 136.17 126.027 137.834 126.027C140.202 126.027 141.546 126.795 141.866 128.331C142.314 130.379 142.538 133.035 142.538 136.299C142.538 136.811 142.506 137.579 142.442 138.603C142.442 139.627 142.41 140.971 142.346 142.635C142.282 143.339 142.25 143.979 142.25 144.555C142.25 145.131 142.25 145.675 142.25 146.187C142.25 146.699 142.25 147.211 142.25 147.723C142.25 148.235 142.282 148.683 142.346 149.067C142.922 162.635 144.17 173.963 146.09 183.051C146.09 183.179 146.09 183.243 146.09 183.243C146.154 183.307 146.186 183.371 146.186 183.435C146.186 184.523 145.13 185.099 143.018 185.163C141.738 185.163 140.394 184.555 138.986 183.339C137.706 182.251 136.746 180.491 136.106 178.059C135.402 175.883 135.018 172.715 134.954 168.555C134.954 167.403 134.954 166.091 134.954 164.619C134.954 163.147 134.922 161.739 134.858 160.395C134.858 158.987 134.826 157.739 134.762 156.651C134.762 155.499 134.73 154.667 134.666 154.155C134.474 154.859 134.154 155.915 133.706 157.323C133.258 158.731 132.746 160.299 132.17 162.027C131.658 163.691 131.114 165.419 130.538 167.211C129.962 168.939 129.45 170.507 129.002 171.915C127.85 175.051 127.146 176.843 126.89 177.291C125.93 179.083 124.778 179.979 123.434 179.979H123.05ZM213.521 150.411C214.801 149.195 216.209 147.819 217.745 146.283C219.281 144.747 220.881 142.987 222.545 141.003C224.017 139.339 225.457 137.707 226.865 136.107C228.273 134.443 229.681 132.779 231.089 131.115C232.049 130.795 232.881 130.635 233.585 130.635C236.081 130.635 237.393 131.499 237.521 133.227C235.729 137.195 232.209 141.899 226.961 147.339C220.817 153.675 216.881 158.187 215.153 160.875C217.137 162.091 219.121 163.275 221.105 164.427C223.089 165.579 225.105 166.763 227.153 167.979C229.393 169.387 231.441 170.795 233.297 172.203C235.217 173.547 236.945 174.859 238.481 176.139C238.865 176.459 239.057 176.907 239.057 177.483C239.057 177.675 238.801 178.635 238.289 180.363C238.161 180.299 237.937 180.267 237.617 180.267C237.233 180.267 236.721 180.427 236.081 180.747C235.505 181.067 235.057 181.227 234.737 181.227C234.289 181.227 233.937 181.099 233.681 180.843C231.505 179.499 228.785 177.835 225.521 175.851C222.257 173.803 218.321 171.435 213.713 168.747C213.841 169.963 213.937 171.403 214.001 173.067C214.065 174.731 214.129 176.683 214.193 178.923C214.193 179.435 214.257 180.203 214.385 181.227C214.513 182.251 214.577 182.987 214.577 183.435C214.577 184.971 213.905 186.027 212.561 186.603C212.305 186.859 211.761 186.987 210.929 186.987C210.161 186.987 209.681 186.763 209.489 186.315C207.889 185.739 206.929 184.619 206.609 182.955C205.841 178.347 205.457 172.939 205.457 166.731C205.457 165.643 205.457 164.267 205.457 162.603C205.521 160.939 205.585 158.987 205.648 156.747C205.713 154.507 205.745 152.555 205.745 150.891C205.809 149.163 205.841 147.755 205.841 146.667C205.841 143.211 205.713 140.043 205.457 137.163C205.265 134.283 204.945 131.499 204.497 128.811C204.497 128.235 204.945 127.787 205.841 127.467L208.241 127.083C208.305 127.083 208.337 127.115 208.337 127.179C208.401 127.179 208.465 127.179 208.529 127.179C209.361 127.435 210.161 127.755 210.929 128.139C211.761 128.459 212.241 128.971 212.369 129.675C213.137 137.547 213.521 143.947 213.521 148.875V150.411Z" fill="black"/>
<path d="M170.671 120.679C169.356 122.801 168.387 125.701 167.764 129.381C166.935 134.363 166.046 137.803 165.096 139.699C164.827 140.134 164.17 140.405 163.125 140.511C161.993 140.637 161.325 140.863 161.123 141.19C160.921 141.516 160.861 141.856 160.944 142.208C160.959 142.669 161.379 143.268 162.202 144.005C162.992 144.795 163.324 145.415 163.197 145.863C162.524 149.135 160.939 155.156 158.442 163.923C157.344 167.76 156.435 171.112 155.713 173.978C155.012 176.931 154.476 179.498 154.104 181.677C153.959 182.641 154.403 183.443 155.436 184.083C156.198 184.555 157.03 184.732 157.931 184.613C160.264 184.251 162.457 182.9 164.51 180.558C165.347 179.571 166.202 178.557 167.073 177.516C167.944 176.475 168.771 175.444 169.554 174.423C174.892 168.847 179.903 163.858 184.588 159.458C189.239 155.112 193.613 151.272 197.712 147.939C198.611 147.216 199.246 146.556 199.617 145.957C200.291 144.869 200.419 143.631 200 142.242C199.601 140.941 199.212 140.172 198.831 139.936C195.862 138.774 192.844 139.878 189.777 143.248C186.507 146.944 183.469 149.842 180.662 151.942L175.416 148.014C173.463 146.427 172.208 144.746 171.652 142.971C171.919 141.932 172.291 140.543 172.766 138.805C173.295 137.1 173.989 135.008 174.848 132.528C176.418 127.93 177.391 124.354 177.768 121.802C177.901 120.98 177.559 120.317 176.743 119.811C176.58 119.71 176.389 119.592 176.172 119.457C176.008 119.356 175.784 119.293 175.499 119.266C173.367 118.698 171.909 118.924 171.126 119.945L170.671 120.679ZM176.139 156.142C175.356 157.163 174.546 158.166 173.709 159.153C172.837 160.195 171.895 161.229 170.881 162.258C169.935 163.177 168.989 164.097 168.043 165.016C167.151 165.969 166.232 166.906 165.285 167.825C166.485 162.244 167.869 156.852 169.436 151.65C170.206 152.352 172.44 153.85 176.139 156.142Z" fill="#E12700"/>
<line x1="110.5" y1="213.919" x2="190.5" y2="213.919" stroke="#9A4331"/>
<path d="M70.3273 241.419V227.547H72.4873V236.883L76.6633 227.547H78.6793V241.419H76.5673V232.011L72.4153 241.419H70.3273ZM82.856 241.419V229.467H80.264V227.547H88.04V229.467H85.424V241.419H82.856ZM92.0889 241.611C91.5449 241.611 91.0649 241.459 90.6489 241.155C90.2329 240.835 89.9049 240.435 89.6649 239.955C89.4249 239.459 89.3049 238.939 89.3049 238.395C89.3049 237.531 89.4489 236.803 89.7369 236.211C90.0249 235.619 90.4169 235.123 90.9129 234.723C91.4249 234.307 92.0089 233.947 92.6649 233.643C93.3369 233.339 94.0409 233.043 94.7769 232.755V231.771C94.7769 231.211 94.7449 230.747 94.6809 230.379C94.6169 230.011 94.4809 229.739 94.2729 229.563C94.0809 229.371 93.7849 229.275 93.3849 229.275C93.0329 229.275 92.7449 229.355 92.5209 229.515C92.3129 229.675 92.1609 229.907 92.0649 230.211C91.9689 230.499 91.9209 230.843 91.9209 231.243V231.939L89.3769 231.843C89.4089 230.307 89.7609 229.179 90.4329 228.459C91.1049 227.723 92.1449 227.355 93.5529 227.355C94.9289 227.355 95.9049 227.731 96.4809 228.483C97.0569 229.235 97.3449 230.323 97.3449 231.747V238.083C97.3449 238.515 97.3529 238.931 97.3689 239.331C97.4009 239.731 97.4329 240.107 97.4649 240.459C97.5129 240.795 97.5529 241.115 97.5849 241.419H95.2329C95.1849 241.163 95.1209 240.843 95.0409 240.459C94.9769 240.059 94.9289 239.699 94.8969 239.379C94.7369 239.923 94.4249 240.435 93.9609 240.915C93.5129 241.379 92.8889 241.611 92.0889 241.611ZM93.0969 239.403C93.3529 239.403 93.5929 239.331 93.8169 239.187C94.0409 239.043 94.2409 238.883 94.4169 238.707C94.5929 238.515 94.7129 238.363 94.7769 238.251V234.315C94.3769 234.539 94.0009 234.763 93.6489 234.987C93.2969 235.211 92.9849 235.451 92.7129 235.707C92.4569 235.947 92.2489 236.227 92.0889 236.547C91.9449 236.851 91.8729 237.203 91.8729 237.603C91.8729 238.163 91.9769 238.603 92.1849 238.923C92.3929 239.243 92.6969 239.403 93.0969 239.403ZM98.9236 241.539V239.595C99.4036 239.595 99.7796 239.499 100.052 239.307C100.34 239.115 100.556 238.795 100.7 238.347C100.86 237.883 100.98 237.267 101.06 236.499C101.14 235.715 101.212 234.739 101.276 233.571L101.588 227.547H108.86V241.419H106.292V229.491H103.844L103.628 233.571C103.548 235.155 103.428 236.467 103.268 237.507C103.124 238.547 102.892 239.363 102.572 239.955C102.252 240.531 101.82 240.939 101.276 241.179C100.748 241.419 100.06 241.539 99.2116 241.539H98.9236ZM111.46 241.419V227.547H114.028V233.283C114.06 233.283 114.1 233.283 114.148 233.283C114.212 233.283 114.268 233.283 114.316 233.283C114.364 233.283 114.404 233.283 114.436 233.283C115.38 233.299 116.18 233.371 116.836 233.499C117.508 233.611 118.052 233.819 118.468 234.123C118.884 234.411 119.188 234.819 119.38 235.347C119.572 235.859 119.668 236.523 119.668 237.339C119.668 238.091 119.572 238.731 119.38 239.259C119.188 239.771 118.876 240.187 118.444 240.507C118.012 240.827 117.444 241.059 116.74 241.203C116.036 241.347 115.18 241.419 114.172 241.419H111.46ZM114.028 239.907H114.172C114.988 239.907 115.628 239.835 116.092 239.691C116.556 239.547 116.884 239.291 117.076 238.923C117.268 238.539 117.364 238.003 117.364 237.315C117.364 236.691 117.276 236.203 117.1 235.851C116.94 235.483 116.636 235.219 116.188 235.059C115.756 234.883 115.124 234.795 114.292 234.795C114.276 234.795 114.236 234.795 114.172 234.795C114.108 234.795 114.06 234.795 114.028 234.795V239.907ZM120.365 241.419L122.981 235.539C122.533 235.363 122.165 235.099 121.877 234.747C121.605 234.395 121.405 233.963 121.277 233.451C121.149 232.939 121.085 232.363 121.085 231.723C121.085 230.987 121.181 230.355 121.373 229.827C121.565 229.299 121.869 228.867 122.285 228.531C122.701 228.195 123.253 227.947 123.941 227.787C124.629 227.627 125.477 227.547 126.485 227.547H129.173V241.419H126.629V235.947C126.373 235.947 126.157 235.947 125.981 235.947C125.805 235.931 125.613 235.915 125.405 235.899L123.125 241.419H120.365ZM126.341 234.459C126.373 234.459 126.421 234.459 126.485 234.459C126.565 234.459 126.613 234.459 126.629 234.459V229.011C126.613 229.011 126.565 229.011 126.485 229.011C126.421 229.011 126.381 229.011 126.365 229.011C125.613 229.011 125.013 229.107 124.565 229.299C124.133 229.475 123.829 229.763 123.653 230.163C123.477 230.547 123.389 231.067 123.389 231.723C123.389 232.635 123.589 233.315 123.989 233.763C124.405 234.211 125.189 234.443 126.341 234.459ZM131.78 241.419V227.547H134.348V233.379H137.636V227.547H140.204V241.419H137.636V235.251H134.348V241.419H131.78ZM146.588 241.611C145.452 241.611 144.588 241.387 143.996 240.939C143.42 240.475 143.028 239.827 142.82 238.995C142.628 238.163 142.532 237.195 142.532 236.091V232.899C142.532 231.731 142.636 230.739 142.844 229.923C143.052 229.091 143.444 228.459 144.02 228.027C144.612 227.579 145.468 227.355 146.588 227.355C147.596 227.355 148.372 227.523 148.916 227.859C149.476 228.179 149.86 228.667 150.068 229.323C150.276 229.963 150.38 230.763 150.38 231.723V232.539H148.052V231.699C148.052 231.091 148.012 230.611 147.932 230.259C147.852 229.907 147.708 229.651 147.5 229.491C147.292 229.331 146.996 229.251 146.612 229.251C146.196 229.251 145.876 229.347 145.652 229.539C145.428 229.731 145.276 230.059 145.196 230.523C145.132 230.971 145.1 231.587 145.1 232.371V236.739C145.1 237.923 145.212 238.715 145.436 239.115C145.66 239.515 146.06 239.715 146.636 239.715C147.068 239.715 147.38 239.619 147.572 239.427C147.78 239.219 147.908 238.931 147.956 238.563C148.02 238.195 148.052 237.779 148.052 237.315V236.187H150.38V237.147C150.38 238.075 150.268 238.875 150.044 239.547C149.836 240.219 149.452 240.731 148.892 241.083C148.348 241.435 147.58 241.611 146.588 241.611ZM152.663 241.419V227.547H155.231V233.403H155.951L158.567 227.547H161.207L158.303 234.267L161.255 241.419H158.567L155.951 234.939H155.231V241.419H152.663ZM165.12 241.611C164.576 241.611 164.096 241.459 163.68 241.155C163.264 240.835 162.936 240.435 162.696 239.955C162.456 239.459 162.336 238.939 162.336 238.395C162.336 237.531 162.48 236.803 162.768 236.211C163.056 235.619 163.448 235.123 163.944 234.723C164.456 234.307 165.04 233.947 165.696 233.643C166.368 233.339 167.072 233.043 167.808 232.755V231.771C167.808 231.211 167.776 230.747 167.712 230.379C167.648 230.011 167.512 229.739 167.304 229.563C167.112 229.371 166.816 229.275 166.416 229.275C166.064 229.275 165.776 229.355 165.552 229.515C165.344 229.675 165.192 229.907 165.096 230.211C165 230.499 164.952 230.843 164.952 231.243V231.939L162.408 231.843C162.44 230.307 162.792 229.179 163.464 228.459C164.136 227.723 165.176 227.355 166.584 227.355C167.96 227.355 168.936 227.731 169.512 228.483C170.088 229.235 170.376 230.323 170.376 231.747V238.083C170.376 238.515 170.384 238.931 170.4 239.331C170.432 239.731 170.464 240.107 170.496 240.459C170.544 240.795 170.584 241.115 170.616 241.419H168.264C168.216 241.163 168.152 240.843 168.072 240.459C168.008 240.059 167.96 239.699 167.928 239.379C167.768 239.923 167.456 240.435 166.992 240.915C166.544 241.379 165.92 241.611 165.12 241.611ZM166.128 239.403C166.384 239.403 166.624 239.331 166.848 239.187C167.072 239.043 167.272 238.883 167.448 238.707C167.624 238.515 167.744 238.363 167.808 238.251V234.315C167.408 234.539 167.032 234.763 166.68 234.987C166.328 235.211 166.016 235.451 165.744 235.707C165.488 235.947 165.28 236.227 165.12 236.547C164.976 236.851 164.904 237.203 164.904 237.603C164.904 238.163 165.008 238.603 165.216 238.923C165.424 239.243 165.728 239.403 166.128 239.403ZM171.787 241.419L174.403 235.539C173.955 235.363 173.587 235.099 173.299 234.747C173.027 234.395 172.827 233.963 172.699 233.451C172.571 232.939 172.507 232.363 172.507 231.723C172.507 230.987 172.603 230.355 172.795 229.827C172.987 229.299 173.291 228.867 173.707 228.531C174.123 228.195 174.675 227.947 175.363 227.787C176.051 227.627 176.899 227.547 177.907 227.547H180.595V241.419H178.051V235.947C177.795 235.947 177.579 235.947 177.403 235.947C177.227 235.931 177.035 235.915 176.827 235.899L174.547 241.419H171.787ZM177.763 234.459C177.795 234.459 177.843 234.459 177.907 234.459C177.987 234.459 178.035 234.459 178.051 234.459V229.011C178.035 229.011 177.987 229.011 177.907 229.011C177.843 229.011 177.803 229.011 177.787 229.011C177.035 229.011 176.435 229.107 175.987 229.299C175.555 229.475 175.251 229.763 175.075 230.163C174.899 230.547 174.811 231.067 174.811 231.723C174.811 232.635 175.011 233.315 175.411 233.763C175.827 234.211 176.611 234.443 177.763 234.459ZM188.687 241.419V227.547H191.255V233.403H191.975L194.591 227.547H197.231L194.327 234.267L197.279 241.419H194.591L191.975 234.939H191.255V241.419H188.687ZM198.432 244.899V242.931C199.056 242.931 199.552 242.899 199.92 242.835C200.288 242.787 200.552 242.683 200.712 242.523C200.872 242.379 200.952 242.171 200.952 241.899C200.952 241.755 200.896 241.435 200.784 240.939C200.672 240.443 200.552 239.915 200.424 239.355L197.64 227.547H200.232L202.104 237.915L203.904 227.547H206.496L203.184 242.187C203.04 242.859 202.776 243.387 202.392 243.771C202.008 244.171 201.512 244.459 200.904 244.635C200.312 244.811 199.592 244.899 198.744 244.899H198.432ZM206.966 241.419L210.086 234.123L207.038 227.547H209.486L211.526 231.939L213.326 227.547H215.846L212.678 234.435L215.894 241.419H213.446L211.262 236.715L209.39 241.419H206.966ZM217.374 241.419V227.547H219.942V233.379H223.23V227.547H225.798V241.419H223.23V235.251H219.942V241.419H217.374ZM227.334 241.419L229.95 235.539C229.502 235.363 229.134 235.099 228.846 234.747C228.574 234.395 228.374 233.963 228.246 233.451C228.118 232.939 228.054 232.363 228.054 231.723C228.054 230.987 228.15 230.355 228.342 229.827C228.534 229.299 228.838 228.867 229.254 228.531C229.67 228.195 230.222 227.947 230.91 227.787C231.598 227.627 232.446 227.547 233.454 227.547H236.142V241.419H233.598V235.947C233.342 235.947 233.126 235.947 232.95 235.947C232.774 235.931 232.582 235.915 232.374 235.899L230.094 241.419H227.334ZM233.31 234.459C233.342 234.459 233.39 234.459 233.454 234.459C233.534 234.459 233.582 234.459 233.598 234.459V229.011C233.582 229.011 233.534 229.011 233.454 229.011C233.39 229.011 233.35 229.011 233.334 229.011C232.582 229.011 231.982 229.107 231.534 229.299C231.102 229.475 230.798 229.763 230.622 230.163C230.446 230.547 230.358 231.067 230.358 231.723C230.358 232.635 230.558 233.315 230.958 233.763C231.374 234.211 232.158 234.443 233.31 234.459Z" fill="black"/>
<path d="M140.344 96.1875C138.082 99.9778 142.16 106.252 147.012 106.97C150.922 107.548 155.029 104.33 158.476 106.265C159.17 106.654 160.108 107.142 161.581 107.746C160.646 102.597 159.764 98.6243 156.732 95.7886C150.392 89.8597 143.784 90.422 140.344 96.1875Z" fill="#E12700"/>
<path d="M149.025 121.248C146.962 122.588 146.975 126.2 148.535 128.537C150.728 131.826 155.761 131.481 158.331 134.485C158.421 134.59 158.515 134.699 158.616 134.813C159.601 131.355 160.261 128.638 159.251 125.97C157.139 120.392 152.894 118.736 149.025 121.248Z" fill="#E12700"/>
</svg>
