<svg width="32" height="32" viewBox="0 0 32 32" fill="none" xmlns="http://www.w3.org/2000/svg">
<mask id="mask0_376_2068" style="mask-type:alpha" maskUnits="userSpaceOnUse" x="0" y="0" width="32" height="32">
<path d="M13.1571 10.3643C13.1571 8.78572 14.4357 7.50714 16 7.50714C17.5643 7.50714 18.8429 8.78572 18.8429 10.3643C18.8429 11.9357 17.5643 13.2071 16 13.2071C14.4357 13.2071 13.1571 11.9286 13.1571 10.3643ZM32 3.42857V28.5714C32 30.4643 30.4643 32 28.5714 32H3.42857C1.53571 32 0 30.4643 0 28.5714V3.42857C0 1.53571 1.53571 0 3.42857 0H28.5714C30.4643 0 32 1.53571 32 3.42857ZM10.2071 10.3643C10.2071 13.55 12.8071 16.1429 16 16.1429C19.1929 16.1429 21.7929 13.5571 21.7929 10.3643C21.7929 7.16429 19.1929 4.57143 16 4.57143C12.8071 4.57143 10.2071 7.15714 10.2071 10.3643ZM22.6714 16.8429C22.3429 16.1929 21.4357 15.6429 20.2357 16.5857C20.2357 16.5857 18.6143 17.8714 16 17.8714C13.3857 17.8714 11.7643 16.5857 11.7643 16.5857C10.5643 15.6429 9.65714 16.1929 9.32857 16.8429C8.76429 17.9929 9.40714 18.5357 10.8571 19.4857C12.0929 20.2786 13.8 20.5714 14.9 20.6857L13.9786 21.6071C12.6786 22.8929 11.4429 24.1429 10.5714 25.0143C9.31429 26.2714 11.3357 28.2857 12.6 27.0571L16.0071 23.6357C17.3071 24.9357 18.5571 26.1857 19.4143 27.0571C20.6714 28.2857 22.7 26.2929 21.4571 25.0143L18.05 21.6071L17.1214 20.6857C18.2286 20.5714 19.9143 20.2643 21.1357 19.4857C22.5929 18.5357 23.2286 17.9857 22.6714 16.8429Z" fill="black"/>
</mask>
<g mask="url(#mask0_376_2068)">
<rect width="32" height="32" rx="16" fill="#F5F5F5"/>
</g>
</svg>
