<svg width="630" height="459" viewBox="0 0 630 459" fill="none" xmlns="http://www.w3.org/2000/svg">
<path d="M309.333 1.19992C307.867 1.86658 305.2 3.99991 303.333 5.99991L300 9.59991L299.333 47.7332L298.667 85.9999L287.467 87.0666C237.333 91.5999 179.867 114.267 125.6 151.067L109.733 161.733L84.2667 136.267C64.9334 117.067 57.6 110.667 54.2667 110C48.1334 108.667 40.6667 112.667 37.6 118.933C33.2 128 34.5334 130.133 61.0667 156.933C74.2667 170.4 84.9334 181.467 84.5334 181.733C71.8667 190.667 27.8667 233.867 11.0667 253.733C-2.5333 269.733 -2.5333 274.267 11.0667 290.267C24.5334 306.267 51.4667 333.333 69.6 349.333C135.867 407.6 202 442.267 271.2 454.933C294.267 459.2 336 459.067 360 454.8C422.533 443.733 481.067 414.667 544.8 363.333C562.8 348.8 605.733 306.933 619.733 290.267C633.2 274.267 633.2 269.733 619.6 253.733C602.8 233.867 558.8 190.667 546.133 181.733C545.733 181.467 556.4 170.4 569.6 156.933C596.133 130.133 597.467 128 593.067 118.933C590 112.667 582.533 108.667 576.4 110C573.067 110.667 565.733 117.067 546.533 136.267L521.067 161.467L501.867 148.933C448.667 113.867 396 92.9333 347.333 87.5999L332 85.8666L331.333 47.5999L330.667 9.33325L326.533 5.19992C322.133 0.799896 314.267 -0.933411 309.333 1.19992ZM339.067 118.8C374.8 122.667 414.667 135.867 452 156.4C492.933 178.8 544.933 220 579.867 257.733L592.933 272L580.533 285.467C566.8 300.4 543.733 322 526 336.8C464.4 387.867 399.333 418.667 339.067 425.2C262.8 433.6 180 400.933 96 329.467C82.2667 317.867 38 274 38 272C38 271.467 47.7334 261.067 59.7334 249.067C104.4 203.867 146.8 172.267 194 148.8C244.4 123.733 292.8 113.733 339.067 118.8Z" fill="black"/>
<path d="M292.267 140.667C249.867 148.667 215.2 174.8 196.133 212.933C166.267 272.533 186.4 347.2 242 382.933C263.733 396.8 284.133 403.467 309.333 404.933C367.067 408 420 372.533 440.667 317.067C450.4 290.533 450.934 257.2 441.867 230.267C427.333 186.933 391.067 153.6 346.667 142.533C332.4 138.933 306.133 138 292.267 140.667ZM341.333 174C352.267 176.933 369.067 185.467 378.267 192.667C394 205.067 408.133 226.533 413.467 246.667C416.8 258.533 416.8 285.467 413.467 297.333C405.867 325.6 386 349.867 360 362.667C344 370.533 334.8 372.533 315.333 372.533C295.867 372.533 286.667 370.533 270.533 362.533C208.533 332.133 194.933 249.6 244 200.667C258.267 186.267 274.8 177.2 294.8 172.8C306 170.267 329.467 170.933 341.333 174Z" fill="black"/>
<path d="M294.8 190.133C271.6 195.733 249.867 213.467 239.333 235.467C231.867 250.8 229.067 271.867 233.333 280C237.333 287.6 247.2 290.133 254.933 285.333C260.533 282 261.867 279.2 263.333 267.067C266.667 241.2 284.4 223.333 310.4 220C322.667 218.533 325.333 217.2 328.667 211.6C333.467 203.867 330.933 194 323.333 190C318.533 187.467 305.467 187.6 294.8 190.133Z" fill="black"/>
</svg>
