<svg width="32" height="32" viewBox="0 0 32 32" fill="none" xmlns="http://www.w3.org/2000/svg">
<mask id="mask0_376_2064" style="mask-type:alpha" maskUnits="userSpaceOnUse" x="0" y="0" width="32" height="32">
<path d="M26.6667 0H5.33333C2.388 0 0 2.388 0 5.33333V26.6667C0 29.612 2.388 32 5.33333 32H26.6667C29.612 32 32 29.612 32 26.6667V5.33333C32 2.388 29.612 0 26.6667 0ZM22.882 23.3333C22.0693 20.7973 20.044 18.8353 17.3653 18.5687V23.3333H16.952C9.664 23.3333 5.50667 18.328 5.33333 10H8.98467C9.10467 16.1127 11.796 18.702 13.928 19.236V10H17.366V15.272C19.4713 15.0453 21.6833 12.6427 22.4293 10H25.8673C25.2947 13.2567 22.896 15.6587 21.19 16.6467C22.8953 17.4473 25.6273 19.5427 26.6667 23.3333H22.882Z" fill="black"/>
</mask>
<g mask="url(#mask0_376_2064)">
<rect width="32" height="32" rx="16" fill="#F5F5F5"/>
</g>
</svg>
